<?xml version="1.0" encoding="utf-8"?>
<!-- Generator: Adobe Illustrator 16.0.0, SVG Export Plug-In . SVG Version: 6.00 Build 0)  -->
<!DOCTYPE svg PUBLIC "-//W3C//DTD SVG 1.1//EN" "http://www.w3.org/Graphics/SVG/1.1/DTD/svg11.dtd">
<svg version="1.1" id="Layer_1" xmlns="http://www.w3.org/2000/svg" xmlns:xlink="http://www.w3.org/1999/xlink" x="0px" y="0px"
	 width="150px" height="150px" viewBox="0 0 150 150" enable-background="new 0 0 150 150" xml:space="preserve">
<g>
	<path id="XMLID_780_" fill-rule="evenodd" clip-rule="evenodd" d="M75.48,144.972c-17.365,0.063-34.605-0.928-51.477-5.457
		c-2.913-0.807-5.827-2.355-8.308-4.216c-3.226-2.419-4.837-6.077-3.971-10.11c4.341-19.472,13.148-36.404,29.024-48.991
		c2.793-2.173,6.08-3.846,9.24-5.46c0.869-0.434,2.543-0.246,3.351,0.373c12.528,8.992,31.071,8.93,43.847-0.187
		c0.807-0.558,2.418-0.558,3.408-0.125c11.663,5.212,19.908,14.202,26.484,24.808c5.396,8.683,9.116,18.048,11.039,28.096
		c1.486,7.38-1.303,12.217-8.499,14.635c-14.572,4.899-29.703,6.265-45.024,6.635C81.558,145.034,78.52,144.972,75.48,144.972z"/>
	<path id="XMLID_779_" fill-rule="evenodd" clip-rule="evenodd" d="M43.543,36.755C43.48,19.39,57.682,5,74.984,5
		c17.611,0,31.938,14.265,31.938,31.692c0,17.424-14.14,31.626-31.567,31.688C57.807,68.505,43.604,54.429,43.543,36.755z"/>
</g>
</svg>
