<?xml version="1.0" encoding="utf-8"?>
<!-- Generator: Adobe Illustrator 16.0.0, SVG Export Plug-In . SVG Version: 6.00 Build 0)  -->
<!DOCTYPE svg PUBLIC "-//W3C//DTD SVG 1.1//EN" "http://www.w3.org/Graphics/SVG/1.1/DTD/svg11.dtd">
<svg version="1.1" id="Layer_1" xmlns="http://www.w3.org/2000/svg" xmlns:xlink="http://www.w3.org/1999/xlink" x="0px" y="0px"
	 width="150px" height="150px" viewBox="0 0 150 150" enable-background="new 0 0 150 150" xml:space="preserve">
<path fill-rule="evenodd" clip-rule="evenodd" d="M125.694,69.405c-2.987-3.155-5.971-6.31-8.958-9.46
	c-6.485-6.854-12.964-13.715-19.463-20.558c-1.926-2.03-3.303-4.225-1.887-7.062c1.827-3.663,5.999-4.195,9.022-1.052
	c7.685,7.987,15.282,16.059,22.904,24.105c5.131,5.417,10.272,10.831,15.372,16.283c3.141,3.349,3.102,5.855-0.212,9.006
	c-13.363,12.699-26.749,25.376-40.15,38.042c-2.823,2.666-5.787,2.75-8.102,0.355c-2.353-2.426-2.168-5.637,0.722-8.395
	c9.048-8.644,18.16-17.217,27.245-25.817c1.015-0.959,2.027-1.919,3.702-3.501c-2.104-0.134-3.342-0.253-4.587-0.286
	c-35.983-0.994-71.971,0.385-107.951-0.602C7.535,80.302,4.961,78.565,5,74.857c0.043-3.764,2.89-5.479,8.821-5.318
	c35.764,0.978,71.528-0.419,107.294,0.621C122.497,70.198,125.537,70.064,125.694,69.405"/>
</svg>
