<?xml version="1.0" encoding="utf-8"?>
<!-- Generator: Adobe Illustrator 16.0.0, SVG Export Plug-In . SVG Version: 6.00 Build 0)  -->
<!DOCTYPE svg PUBLIC "-//W3C//DTD SVG 1.1//EN" "http://www.w3.org/Graphics/SVG/1.1/DTD/svg11.dtd">
<svg version="1.1" fill="#d70f64" id="Layer_1" xmlns="http://www.w3.org/2000/svg" xmlns:xlink="http://www.w3.org/1999/xlink" x="0px" y="0px"
	 width="150px" height="150px" viewBox="0 0 150 150" enable-background="new 0 0 150 150" xml:space="preserve">
<path id="XMLID_112_" fill-rule="evenodd" clip-rule="evenodd" d="M125.692,69.404c-2.984-3.152-5.971-6.308-8.957-9.461
	c-6.485-6.853-12.964-13.713-19.463-20.558c-1.924-2.026-3.3-4.223-1.887-7.061c1.829-3.661,5.999-4.193,9.022-1.049
	c7.685,7.987,15.281,16.059,22.903,24.104c5.134,5.417,10.272,10.832,15.374,16.28c3.141,3.351,3.1,5.858-0.212,9.007
	c-13.365,12.701-26.751,25.379-40.153,38.044c-2.822,2.666-5.786,2.746-8.102,0.354c-2.353-2.427-2.168-5.638,0.722-8.396
	c9.048-8.642,18.16-17.216,27.244-25.815c1.015-0.959,2.027-1.918,3.702-3.502c-2.102-0.134-3.342-0.251-4.588-0.285
	c-35.982-0.994-71.969,0.385-107.95-0.603C7.535,80.302,4.961,78.568,5,74.857c0.044-3.763,2.89-5.479,8.822-5.32
	c35.766,0.979,71.526-0.418,107.292,0.622C122.498,70.201,125.536,70.065,125.692,69.404z"/>
</svg>
