<?xml version="1.0" encoding="utf-8"?>
<!-- Generator: Adobe Illustrator 16.0.0, SVG Export Plug-In . SVG Version: 6.00 Build 0)  -->
<!DOCTYPE svg PUBLIC "-//W3C//DTD SVG 1.1//EN" "http://www.w3.org/Graphics/SVG/1.1/DTD/svg11.dtd">
<svg version="1.1" id="Layer_1" xmlns="http://www.w3.org/2000/svg" xmlns:xlink="http://www.w3.org/1999/xlink" x="0px" y="0px"
	 width="150px" height="150px" viewBox="0 0 150 150" enable-background="new 0 0 150 150" xml:space="preserve">
<g>
	<defs>
		<rect id="SVGID_17_" x="33.341" y="5" width="83.318" height="140"/>
	</defs>
	<clipPath id="SVGID_2_">
		<use xlink:href="#SVGID_17_"  overflow="visible"/>
	</clipPath>
	<path clip-path="url(#SVGID_2_)" fill-rule="evenodd" clip-rule="evenodd" d="M74.69,145c-2.324-3.945-4.607-7.367-6.443-11.014
		c-10.121-20.094-20.481-40.088-28.353-61.221c-1.984-5.327-3.854-10.735-5.248-16.242c-4.389-17.333,2.496-34.673,17.506-44.784
		c13.656-9.202,33.22-8.956,46.657,0.589c14.749,10.48,20.971,27.85,16.35,45.203c-3.644,13.688-9.051,26.692-15.187,39.4
		c-6.913,14.318-14.045,28.529-21.074,42.791C77.997,141.555,77.085,143.364,74.69,145 M100.595,48.01
		c0.084,14.711-10.796,25.922-25.274,26.043c-14.352,0.122-25.798-11.174-25.861-25.525C49.396,33.98,60.417,22.608,74.817,22.363
		C89.009,22.119,100.512,33.565,100.595,48.01"/>
</g>
</svg>
