<?xml version="1.0" encoding="utf-8"?>
<!-- Generator: Adobe Illustrator 16.0.0, SVG Export Plug-In . SVG Version: 6.00 Build 0)  -->
<!DOCTYPE svg PUBLIC "-//W3C//DTD SVG 1.1//EN" "http://www.w3.org/Graphics/SVG/1.1/DTD/svg11.dtd">
<svg version="1.1" id="Layer_1" xmlns="http://www.w3.org/2000/svg" xmlns:xlink="http://www.w3.org/1999/xlink" x="0px" y="0px"
	 width="150px" height="150px" viewBox="0 0 150 150" enable-background="new 0 0 150 150" xml:space="preserve">
<g>
	<path fill-rule="evenodd" clip-rule="evenodd" d="M53.698,91.285c15.479,11.179,28.033,10.368,42.578-0.186
		c5.886,9.711,15.613,14.471,25.253,19.399c7.586,3.885,14.174,8.977,18.365,16.642c5.315,9.731,0.552,17.859-10.453,17.859
		c-36.274-0.011-72.544-0.011-108.827-0.021c-10.841,0-16.005-8.193-10.403-17.431c2.868-4.732,7.104-8.764,11.261-12.539
		c2.738-2.486,6.326-4.118,9.693-5.815C39.931,104.76,48.34,99.945,53.698,91.285"/>
	<path fill-rule="evenodd" clip-rule="evenodd" d="M75.098,5c21.439-0.032,36.661,19.078,32.687,41.334
		c-2.056,11.505-6.721,21.95-14.255,30.976c-11.57,13.839-24.967,14.182-36.719,0.555C47.17,66.68,41.589,53.52,41.368,38.657
		C41.082,19.748,56.15,5.032,75.098,5"/>
</g>
</svg>
