<?xml version="1.0" encoding="utf-8"?>
<!-- Generator: Adobe Illustrator 16.0.0, SVG Export Plug-In . SVG Version: 6.00 Build 0)  -->
<!DOCTYPE svg PUBLIC "-//W3C//DTD SVG 1.1//EN" "http://www.w3.org/Graphics/SVG/1.1/DTD/svg11.dtd">
<svg version="1.1" id="Layer_1" xmlns="http://www.w3.org/2000/svg" xmlns:xlink="http://www.w3.org/1999/xlink" x="0px" y="0px"
	 width="150px" height="150px" viewBox="0 0 150 150" enable-background="new 0 0 150 150" xml:space="preserve">
<path fill-rule="evenodd" clip-rule="evenodd" d="M105.427,115.619c-5.498,4.519-11.285,7.91-17.625,10.385
	c-25.232,9.847-55.038,0.978-70.905-21.139C7.003,91.076,3.284,75.722,5.725,58.937C9.48,33.09,30.234,11.965,55.808,7.736
	c30.512-5.045,59.41,12.59,68.684,42.297c5.592,17.914,3.192,35.039-6.554,51.067c-0.672,1.106-0.694,1.688,0.262,2.64
	c8.083,8.047,16.132,16.129,24.13,24.263c4.674,4.755,2.963,12.517-3.188,14.578c-3.555,1.192-6.76,0.403-9.428-2.274
	c-7.641-7.669-15.268-15.355-22.891-23.042C106.349,116.785,105.947,116.234,105.427,115.619 M66.222,20.165
	c-26.205-0.088-47.747,21.59-47.821,48.118c-0.071,26.609,21.317,48.207,47.888,48.36c26.287,0.15,47.996-21.565,48.043-48.062
	C114.378,42.045,92.726,20.254,66.222,20.165"/>
</svg>
