<?xml version="1.0" encoding="utf-8"?>
<!-- Generator: Adobe Illustrator 16.0.0, SVG Export Plug-In . SVG Version: 6.00 Build 0)  -->
<!DOCTYPE svg PUBLIC "-//W3C//DTD SVG 1.1//EN" "http://www.w3.org/Graphics/SVG/1.1/DTD/svg11.dtd">
<svg version="1.1" id="Layer_1" xmlns="http://www.w3.org/2000/svg" xmlns:xlink="http://www.w3.org/1999/xlink" x="0px" y="0px"
	 width="150px" height="150px" viewBox="0 0 150 150" enable-background="new 0 0 150 150" xml:space="preserve">
<g>
	<defs>
		<rect id="SVGID_21_" x="5" y="6.238" width="140" height="137.523"/>
	</defs>
	<clipPath id="SVGID_2_">
		<use xlink:href="#SVGID_21_"  overflow="visible"/>
	</clipPath>
	<path clip-path="url(#SVGID_2_)" fill-rule="evenodd" clip-rule="evenodd" d="M5,136.242V25.227
		c0.141-0.425,0.286-0.85,0.422-1.278c1.174-3.691,4.162-6.202,8.049-6.31c5.143-0.145,10.295-0.027,15.44-0.017
		c0.069,0,0.138,0.097,0.319,0.229v1.263c0,4.284-0.097,8.57,0.047,12.849c0.06,1.732,0.32,3.598,1.048,5.14
		c1.993,4.223,5.644,5.741,10.185,5.669c6.489-0.104,10.678-4.227,10.693-10.72c0.013-4.329,0.003-8.657,0.003-12.986v-1.433h48.69
		v1.529c0,4.329-0.03,8.658,0.009,12.988c0.04,4.404,1.942,7.742,6.001,9.591c2.745,1.252,5.709,1.153,8.595,0.601
		c4.94-0.947,7.354-3.945,7.385-8.98c0.029-4.739,0.006-9.477,0.007-14.217v-1.489c5.166,0,10.172-0.048,15.174,0.041
		c1.001,0.019,2.044,0.454,2.977,0.89c2.817,1.316,4.21,3.751,4.957,6.641v111.016c-0.581,1.27-0.99,2.658-1.774,3.786
		c-1.958,2.821-4.849,3.738-8.193,3.733c-17.393-0.031-34.786-0.013-52.179-0.013c-22.629,0-45.26,0.021-67.889-0.048
		c-1.718-0.005-3.538-0.402-5.128-1.06C7.066,141.498,5.828,138.974,5,136.242 M14.036,134.724h121.91v-81.55H14.036V134.724z"/>
	<path clip-path="url(#SVGID_2_)" fill-rule="evenodd" clip-rule="evenodd" d="M33.708,22.301c-0.002-3.326-0.017-6.65,0.003-9.977
		c0.02-3.689,2.273-5.921,5.982-5.96c0.365-0.003,0.729-0.003,1.094,0c3.581,0.045,5.88,2.151,5.926,5.743
		c0.088,6.786,0.089,13.573,0.005,20.359c-0.045,3.668-2.305,5.756-5.989,5.839c-0.637,0.015-1.281,0.025-1.91-0.044
		c-3.045-0.342-5.061-2.517-5.1-5.576C33.675,29.224,33.709,25.762,33.708,22.301"/>
	<path clip-path="url(#SVGID_2_)" fill-rule="evenodd" clip-rule="evenodd" d="M117.41,22.217c0,3.278,0.011,6.561-0.003,9.84
		c-0.015,3.896-2.182,6.055-6.107,6.067c-0.906,0.005-1.841,0.025-2.715-0.176c-2.648-0.604-4.174-2.783-4.2-5.937
		c-0.033-4.056-0.02-8.108-0.021-12.162c-0.001-2.506-0.02-5.012,0.021-7.518c0.061-3.923,2.207-6.034,6.135-6.092
		c3.771-0.057,5.937,1.253,6.679,4.111c0.168,0.65,0.191,1.349,0.194,2.025c0.02,3.28,0.01,6.561,0.01,9.84H117.41z"/>
	<path clip-path="url(#SVGID_2_)" fill-rule="evenodd" clip-rule="evenodd" d="M35.133,126.095c-2.459,0-4.919-0.028-7.378,0.013
		c-1.271,0.02-1.81-0.499-1.797-1.79c0.04-4.28,0.038-8.563,0.014-12.844c-0.006-1.163,0.509-1.663,1.64-1.662
		c5.008,0.003,10.02-0.001,15.029-0.011c1.17-0.004,1.746,0.488,1.737,1.728c-0.032,4.282-0.029,8.563-0.002,12.846
		c0.008,1.222-0.528,1.737-1.728,1.727C40.145,126.078,37.639,126.095,35.133,126.095"/>
	<path clip-path="url(#SVGID_2_)" fill-rule="evenodd" clip-rule="evenodd" d="M61.409,126.095c-2.459,0-4.919-0.026-7.378,0.011
		c-1.254,0.02-1.825-0.464-1.813-1.771c0.041-4.28,0.041-8.563,0.012-12.843c-0.01-1.155,0.472-1.681,1.613-1.681
		c5.053,0.007,10.108,0.005,15.164,0.003c1.135,0,1.629,0.548,1.623,1.694c-0.025,4.28-0.031,8.562,0.002,12.842
		c0.01,1.318-0.611,1.771-1.846,1.755C66.328,126.07,63.869,126.095,61.409,126.095"/>
	<path clip-path="url(#SVGID_2_)" fill-rule="evenodd" clip-rule="evenodd" d="M87.672,109.813c2.414,0,4.828-0.011,7.242,0.004
		c1.632,0.009,1.95,0.32,1.954,1.891c0.009,4.189,0.009,8.38,0.002,12.569c-0.002,1.484-0.344,1.816-1.877,1.818
		c-4.874,0.006-9.747,0.007-14.621-0.004c-1.563-0.003-1.87-0.292-1.875-1.811c-0.015-4.234,0.022-8.473-0.021-12.707
		c-0.015-1.323,0.579-1.784,1.817-1.77C82.753,109.834,85.213,109.813,87.672,109.813"/>
	<path clip-path="url(#SVGID_2_)" fill-rule="evenodd" clip-rule="evenodd" d="M113.935,126.095c-2.414,0-4.827,0.007-7.241-0.002
		c-1.665-0.009-1.936-0.266-1.939-1.88c-0.01-4.191-0.01-8.382,0.001-12.571c0.003-1.524,0.295-1.818,1.857-1.823
		c4.874-0.015,9.747-0.015,14.621,0c1.573,0.005,1.886,0.346,1.89,1.955c0.008,4.099,0.01,8.199,0.007,12.299
		c0,1.747-0.289,2.024-2.09,2.029c-2.367,0.007-4.736,0.002-7.105,0.002V126.095z"/>
	<path clip-path="url(#SVGID_2_)" fill-rule="evenodd" clip-rule="evenodd" d="M87.717,80.462c-2.504,0-5.009-0.028-7.513,0.012
		c-1.216,0.019-1.731-0.479-1.722-1.703c0.029-4.28,0.032-8.561-0.002-12.841c-0.011-1.236,0.51-1.711,1.718-1.703
		c5.007,0.025,10.016,0.02,15.025,0.004c1.132-0.004,1.663,0.457,1.657,1.631c-0.023,4.325-0.016,8.65,0.004,12.977
		c0.007,1.157-0.508,1.651-1.655,1.639c-2.504-0.025-5.008-0.008-7.513-0.008V80.462z"/>
	<path clip-path="url(#SVGID_2_)" fill-rule="evenodd" clip-rule="evenodd" d="M113.934,80.462c-2.459,0-4.918-0.034-7.375,0.015
		c-1.254,0.023-1.836-0.418-1.822-1.739c0.041-4.28,0.032-8.56,0.002-12.839c-0.007-1.146,0.438-1.672,1.604-1.668
		c5.054,0.018,10.106,0.015,15.16,0c1.147-0.002,1.639,0.502,1.632,1.658c-0.024,4.279-0.029,8.559,0.007,12.838
		c0.01,1.312-0.583,1.773-1.833,1.751c-2.459-0.041-4.917-0.011-7.375-0.011V80.462z"/>
	<path clip-path="url(#SVGID_2_)" fill-rule="evenodd" clip-rule="evenodd" d="M35.047,103.25c-2.458,0-4.917-0.025-7.374,0.01
		c-1.22,0.018-1.722-0.501-1.713-1.719c0.034-4.278,0.037-8.56,0.012-12.839c-0.006-1.229,0.529-1.697,1.737-1.69
		c4.962,0.03,9.925,0.032,14.887-0.001c1.29-0.01,1.795,0.521,1.783,1.797c-0.035,4.233-0.039,8.468,0.002,12.702
		c0.014,1.32-0.575,1.772-1.82,1.752C40.055,103.222,37.551,103.25,35.047,103.25"/>
	<path clip-path="url(#SVGID_2_)" fill-rule="evenodd" clip-rule="evenodd" d="M61.345,103.25c-2.413,0-4.826,0.012-7.24-0.002
		c-1.62-0.011-1.854-0.23-1.858-1.803c-0.012-4.234,0.016-8.469-0.014-12.703c-0.011-1.206,0.451-1.737,1.689-1.73
		c5.009,0.03,10.018,0.027,15.025,0.002c1.244-0.006,1.69,0.568,1.684,1.756c-0.025,4.282-0.021,8.563,0.004,12.841
		c0.008,1.159-0.495,1.659-1.643,1.651c-2.547-0.021-5.099-0.007-7.647-0.007V103.25z"/>
	<path clip-path="url(#SVGID_2_)" fill-rule="evenodd" clip-rule="evenodd" d="M87.716,103.25c-2.505,0-5.009-0.025-7.513,0.01
		c-1.205,0.018-1.733-0.459-1.723-1.699c0.034-4.279,0.031-8.56,0.002-12.839c-0.01-1.223,0.496-1.717,1.717-1.71
		c4.962,0.028,9.925,0.032,14.889-0.001c1.278-0.01,1.808,0.492,1.796,1.782c-0.033,4.232-0.034,8.47,0.01,12.704
		c0.014,1.306-0.543,1.796-1.803,1.777c-2.458-0.039-4.917-0.012-7.375-0.012V103.25z"/>
	<path clip-path="url(#SVGID_2_)" fill-rule="evenodd" clip-rule="evenodd" d="M113.967,87.024c2.459,0,4.918,0.032,7.377-0.014
		c1.281-0.023,1.804,0.497,1.794,1.786c-0.034,4.233-0.034,8.468,0.01,12.703c0.013,1.308-0.552,1.78-1.808,1.774
		c-4.963-0.032-9.926-0.035-14.889-0.015c-1.206,0.006-1.726-0.462-1.715-1.701c0.038-4.281,0.035-8.562,0.002-12.84
		c-0.009-1.23,0.5-1.726,1.715-1.707C108.958,87.053,111.463,87.024,113.967,87.024"/>
</g>
</svg>
