<?xml version="1.0" encoding="utf-8"?>
<!-- Generator: Adobe Illustrator 16.0.0, SVG Export Plug-In . SVG Version: 6.00 Build 0)  -->
<!DOCTYPE svg PUBLIC "-//W3C//DTD SVG 1.1//EN" "http://www.w3.org/Graphics/SVG/1.1/DTD/svg11.dtd">
<svg version="1.1" id="Layer_1" xmlns="http://www.w3.org/2000/svg" xmlns:xlink="http://www.w3.org/1999/xlink" x="0px" y="0px"
	 width="150px" height="150px" viewBox="0 0 150 150" enable-background="new 0 0 150 150" xml:space="preserve">
<g>
	<path d="M71.559,39.395c4.489-5.952,8.813-5.876,12.842,0.051C80.164,39.43,76.111,39.413,71.559,39.395z"/>
	<path d="M12.421,95.637c42.034,12.386,84.122,12.993,126.505,0.519C117.085,111.564,41.782,112.959,12.421,95.637z"/>
	<path d="M121.555,106.068c-30.134,12.637-60.199,11.354-90.196-0.314C61.397,111.354,91.454,112.085,121.555,106.068z"/>
	<path d="M141.807,84.505c-3.649-2.403-7.824-3.681-12.048-4.564c-2.787-0.584-4.256-2.012-5.697-4.354
		c-9.02-14.654-21.619-24.719-38.997-28.264c-2.419-0.493-4.282-0.654-3.906-4c0.333-2.967-2.466-1.6-3.905-1.751
		c-1.243-0.13-3.551-0.74-3.036,1.771c0.629,3.053-0.984,3.33-3.309,3.367c-1.48,0.023-2.97,0.229-4.431,0.492
		c-16.625,2.986-28.871,12.227-37.682,26.04c-1.965,3.082-4.146,4.803-7.797,5.288c-4.711,0.625-9.281,1.978-13.244,4.69
		c-3.563,2.438-3.68,5.249-0.292,7.743c3.236,2.386,6.938,3.813,11.596,4.767c-2.23-3.118-1.283-5.043,1.096-6.563
		c0.664-0.424,1.481-1.056,1.994,0.079c2.85,6.292,9.115,7.196,14.744,8.558c9.216,2.23,18.574,3.458,27.996,4.054
		c-0.011-5.241-0.109-12.744,0.127-16.25c0.049-0.744-0.353-0.998-0.891-1.266c-2.478-1.234-3.627-3.202-3.587-5.953
		c0.062-4.295,0.009-8.592,0.009-12.886c0-0.441,0.003-0.885,0.029-1.326c0.03-0.495,0.247-0.852,0.814-0.855
		c0.517-0.006,0.885,0.26,0.973,0.741c0.092,0.492,0.083,1.005,0.084,1.509c0.007,3.284-0.002,6.568,0.01,9.854
		c0.004,0.731-0.176,1.617,0.907,1.807c0.703,0.122,1.042-0.476,1.048-1.863c0.012-3.284,0-6.568,0.001-9.853
		c0-0.441,0.003-0.885,0.026-1.326c0.026-0.494,0.234-0.855,0.802-0.869c0.515-0.012,0.895,0.242,0.988,0.725
		c0.095,0.49,0.087,1.005,0.087,1.508c0.006,3.158-0.002,6.316,0.001,9.475c0.001,0.505-0.021,1.021,0.088,1.508
		c0.126,0.569,0.605,0.779,1.175,0.76c0.513-0.019,0.881-0.293,0.977-0.763c0.101-0.487,0.094-1.003,0.097-1.506
		c0.015-3.284,0.008-6.568,0.036-9.853c0.006-0.72-0.213-1.624,0.875-1.822c0.699-0.13,1.009,0.439,1.013,1.87
		c0.013,3.348-0.001,6.695,0,10.043c0,0.44-0.011,0.888,0.044,1.323c0.073,0.586,0.493,0.879,1.05,0.933
		c0.506,0.05,0.848-0.271,1.071-0.677c0.287-0.522,0.188-1.109,0.189-1.673c0.005-3.159-0.001-6.317,0.003-9.475
		c0-0.505-0.004-1.014,0.056-1.513c0.07-0.588,0.455-0.89,1.06-0.858c0.57,0.03,0.741,0.428,0.764,0.911
		c0.021,0.441,0.022,0.884,0.022,1.326c0.005,4.23-0.066,8.465,0.039,12.694c0.069,2.784-1.149,4.733-3.528,6.028
		c-0.784,0.427-1.137,0.912-1.134,1.77c0.015,4.193,0.021,10.73,0.017,16.073c3.116,0.123,6.238,0.187,9.363,0.197
		c1.52,0.005,3.039-0.01,4.555-0.042c0.001-5.803,0.012-11.718,0.026-14.197c0.004-0.881-0.19-1.514-0.976-2.084
		c-2.033-1.478-3.304-3.461-3.778-5.949c-0.756-3.973-0.282-7.773,1.38-11.457c0.715-1.585,1.687-2.966,3.014-4.114
		c1.567-1.353,3.51-1.59,5.349-0.623c1.105,0.582,1.95,1.443,2.624,2.455c2.403,3.619,3.367,7.628,3.003,11.897
		c-0.259,3.035-1.27,5.857-3.972,7.652c-1.093,0.725-1.337,1.53-1.325,2.679c0.022,1.96,0.022,8.016,0.021,13.549
		c10.07-0.526,20.033-1.971,29.815-4.722c3.133-0.882,6.493-1.76,7.936-4.982c1.104-2.464,2.387-2.718,4.635-1.664
		c2.871,1.344,1.784,3.055,0.249,5.35c3.824-0.525,6.754-1.445,9.438-3.01C146.055,90.459,146.146,87.365,141.807,84.505z
		 M38.533,81.21c-0.314,1.016-0.482,2.758-2.304,1.752c-1.371-0.757-3.485-0.856-3.127-3.441
		c1.546-11.159,17.266-24.212,29.526-24.054C50.401,60.305,42.359,68.834,38.533,81.21z M116.119,91.093
		c-5.12,2.618-10.712,3.3-16.369,3.74c3.732-1.756,7.88-2.396,11.416-4.572c4.137-2.547,4.687-4.007,3.172-8.558
		c-2.492-7.484-6.361-14.24-11.103-20.56c8.453,6.542,13.567,15.14,15.995,25.337C119.8,88.87,117.964,90.148,116.119,91.093z"/>
</g>
</svg>
