<?xml version="1.0" encoding="utf-8"?>
<!-- Generator: Adobe Illustrator 16.0.0, SVG Export Plug-In . SVG Version: 6.00 Build 0)  -->
<!DOCTYPE svg PUBLIC "-//W3C//DTD SVG 1.1//EN" "http://www.w3.org/Graphics/SVG/1.1/DTD/svg11.dtd">
<svg version="1.1" id="Layer_1" xmlns="http://www.w3.org/2000/svg" xmlns:xlink="http://www.w3.org/1999/xlink" x="0px" y="0px"
	 width="150px" height="150px" viewBox="0 0 150 150" enable-background="new 0 0 150 150" xml:space="preserve">
<g>
	<defs>
		<rect id="SVGID_15_" x="5" y="11.087" width="140" height="127.826"/>
	</defs>
	<clipPath id="SVGID_2_">
		<use xlink:href="#SVGID_15_"  overflow="visible"/>
	</clipPath>
	<path clip-path="url(#SVGID_2_)" d="M46.793,98.795c-0.493,0-0.992-0.011-1.477,0.06c-1.484,0.216-2.542,1.452-2.518,2.894
		c0.023,1.438,1.127,2.667,2.594,2.84c0.487,0.058,0.985,0.027,1.479,0.027c26.161,0.001,52.321-0.002,78.482,0.004
		c2.691,0.001,4.603,1.76,4.655,4.229c0.052,2.46-1.878,4.387-4.5,4.388c-26.655,0.01-53.309,0.036-79.963-0.024
		c-4.683-0.011-8.205-2.327-10.223-6.556c-2.02-4.23-1.483-8.328,1.349-12.065c0.521-0.687,0.69-1.265,0.509-2.118
		c-1.561-7.349-3.068-14.708-4.596-22.064c-3.434-16.534-6.879-33.067-10.284-49.608c-0.18-0.876-0.501-1.121-1.367-1.111
		c-3.743,0.047-7.486,0.026-11.229,0.018C6.939,19.699,5,17.918,5,15.408c0-2.517,1.937-4.312,4.69-4.315
		c5.142-0.009,10.283-0.007,15.425-0.002c2.703,0.003,4.22,1.229,4.767,3.857c1.173,5.634,2.372,11.263,3.479,16.91
		c0.231,1.18,0.643,1.576,1.894,1.57c12.456-0.053,86.177-0.031,96.831-0.031c2.715,0,5.43-0.002,8.145-0.002
		c3.406,0,5.069,2.751,4.727,4.901c-0.136,0.852-0.312,1.696-0.487,2.54c-3.72,17.905-7.445,35.809-11.161,53.714
		c-0.649,3.128-1.991,4.241-5.195,4.241c-13.533,0.001-27.065,0.001-40.599,0.001C73.941,98.793,60.367,98.792,46.793,98.795
		 M35.828,42.851l9.65,46.794c0.066,0.319,0.347,0.548,0.673,0.548h78.615c0.326,0,0.607-0.229,0.673-0.548l9.651-46.802
		c0.088-0.427-0.238-0.826-0.673-0.826l-97.917,0.008C36.066,42.024,35.74,42.424,35.828,42.851"/>
	<path clip-path="url(#SVGID_2_)" d="M131.504,125.225c-0.003,7.518-6.144,13.672-13.657,13.688
		c-7.566,0.017-13.686-6.031-13.737-13.576c-0.051-7.619,6.033-13.785,13.623-13.808
		C125.327,111.508,131.508,117.653,131.504,125.225 M117.758,130.289c2.794,0.015,5.128-2.315,5.107-5.099
		c-0.022-2.801-2.358-5.076-5.166-5.033c-2.757,0.043-4.978,2.323-4.96,5.093C112.757,128.021,115.001,130.274,117.758,130.289"/>
	<path clip-path="url(#SVGID_2_)" d="M55.033,111.53c7.456-0.014,13.793,6.297,13.768,13.709
		c-0.026,7.584-6.192,13.699-13.787,13.674c-7.53-0.024-13.614-6.153-13.604-13.703C41.422,117.647,47.5,111.545,55.033,111.53
		 M55.107,130.29c2.744-0.008,5.025-2.274,5.057-5.024c0.033-2.786-2.291-5.119-5.089-5.108c-2.77,0.011-5.013,2.248-5.031,5.018
		C50.026,128.005,52.295,130.298,55.107,130.29"/>
</g>
</svg>
