<?xml version="1.0" encoding="utf-8"?>
<!-- Generator: Adobe Illustrator 16.0.0, SVG Export Plug-In . SVG Version: 6.00 Build 0)  -->
<!DOCTYPE svg PUBLIC "-//W3C//DTD SVG 1.1//EN" "http://www.w3.org/Graphics/SVG/1.1/DTD/svg11.dtd">
<svg version="1.1" id="Layer_1" xmlns="http://www.w3.org/2000/svg" xmlns:xlink="http://www.w3.org/1999/xlink" x="0px" y="0px"
	 width="150px" height="150px" viewBox="0 0 150 150" enable-background="new 0 0 150 150" xml:space="preserve">
<g>
	<defs>
		<rect id="SVGID_9_" x="5" y="5.537" width="140" height="138.926"/>
	</defs>
	<clipPath id="SVGID_2_">
		<use xlink:href="#SVGID_9_"  overflow="visible"/>
	</clipPath>
	<path clip-path="url(#SVGID_2_)" d="M103.5,46.501L103.5,46.501c-2.225-2.226-5.834-2.226-8.06,0L75,66.94L54.561,46.501
		c-2.226-2.226-5.834-2.226-8.061,0c-2.225,2.226-2.225,5.834,0,8.06l20.44,20.44L46.5,95.44c-2.225,2.226-2.225,5.833,0,8.059
		c2.226,2.227,5.834,2.227,8.061,0L75,83.061l20.44,20.438c2.226,2.227,5.835,2.227,8.06,0c2.226-2.226,2.226-5.833,0-8.059
		L83.061,75.001l20.439-20.44C105.725,52.335,105.725,48.727,103.5,46.501"/>
	<path clip-path="url(#SVGID_2_)" d="M75.074,144.463H74.93c-18.759-0.037-36.354-7.313-49.544-20.486
		C12.192,110.8,4.954,93.268,5,74.61C5.095,36.494,36.658,5.537,75.384,5.537h0.146C113.903,5.625,145.067,36.974,145,75.42
		c-0.033,18.399-7.368,35.738-20.652,48.822C111.104,137.286,93.609,144.462,75.074,144.463 M75.384,10.771
		c-35.849,0-65.062,28.615-65.149,63.852c-0.044,17.253,6.651,33.465,18.851,45.649c12.203,12.189,28.489,18.921,45.854,18.956
		h0.133c17.154,0,33.343-6.643,45.601-18.716c12.281-12.095,19.061-28.112,19.092-45.102c0.063-35.562-28.759-64.559-64.246-64.64
		H75.384z"/>
</g>
</svg>
