<?xml version="1.0" encoding="utf-8"?>
<!-- Generator: Adobe Illustrator 16.0.0, SVG Export Plug-In . SVG Version: 6.00 Build 0)  -->
<!DOCTYPE svg PUBLIC "-//W3C//DTD SVG 1.1//EN" "http://www.w3.org/Graphics/SVG/1.1/DTD/svg11.dtd">
<svg version="1.1" id="Layer_1" xmlns="http://www.w3.org/2000/svg" xmlns:xlink="http://www.w3.org/1999/xlink" x="0px" y="0px"
	 width="150px" height="150px" viewBox="0 0 150 150" enable-background="new 0 0 150 150" xml:space="preserve">
<g>
	<rect x="108.405" y="84.027" width="16.424" height="11.448"/>
	<rect x="126.898" y="84.027" width="8.238" height="11.448"/>
	<rect x="11.956" y="84.027" width="94.562" height="11.448"/>
	<g>
		<path d="M127.132,97.877h-21.029H11.956v38.347c0,3.348,2.738,6.085,6.084,6.085h111.012c3.348,0,6.085-2.737,6.085-6.085V97.877
			H127.132z M61.857,123.575H22.256v-2.4h39.601V123.575z M69.65,115.73H22.257v-2.402H69.65V115.73z M128.091,125.737H97.968
			v-13.37h30.123V125.737z M99.889,123.815h26.281v-9.526H99.889V123.815z"/>
		<path d="M129.052,66.735H18.041c-3.346,0-6.084,2.738-6.084,6.084v8.807h94.146h21.029h8.005v-8.807
			C135.137,69.474,132.398,66.735,129.052,66.735"/>
		<path d="M141.975,64.239L45.965,8.509c-2.895-1.68-6.637-0.688-8.316,2.207l-4.421,7.617l78.376,45.495h17.448
			c4.959,0,8.992,4.033,8.992,8.991v6.356l1.718,0.996l4.421-7.616C145.862,69.662,144.868,65.919,141.975,64.239"/>
		<polygon points="106.821,63.827 32.021,20.41 26.275,30.311 84.018,63.827 		"/>
		<path d="M9.049,72.819c0-4.957,4.033-8.992,8.991-8.992h10.003l-6.967-4.043l1.206-2.077l10.544,6.12H43.67L25.015,52.999
			l1.206-2.077l22.233,12.905h30.778L25.069,32.388L5.818,65.553c-1.68,2.895-0.687,6.637,2.207,8.316l1.024,0.594V72.819z"/>
	</g>
</g>
</svg>
