<?xml version="1.0" encoding="utf-8"?>
<!-- Generator: Adobe Illustrator 16.0.0, SVG Export Plug-In . SVG Version: 6.00 Build 0)  -->
<!DOCTYPE svg PUBLIC "-//W3C//DTD SVG 1.1//EN" "http://www.w3.org/Graphics/SVG/1.1/DTD/svg11.dtd">
<svg version="1.1" id="Layer_1" xmlns="http://www.w3.org/2000/svg" xmlns:xlink="http://www.w3.org/1999/xlink" x="0px" y="0px"
	 width="150px" height="150px" viewBox="0 0 150 150" enable-background="new 0 0 150 150" xml:space="preserve">
<g>
	<defs>
		<rect id="SVGID_13_" x="5" y="5.869" width="140" height="138.262"/>
	</defs>
	<clipPath id="SVGID_2_">
		<use xlink:href="#SVGID_13_"  overflow="visible"/>
	</clipPath>
	<path clip-path="url(#SVGID_2_)" d="M66.648,67.316c0-5.235,0-10.47,0-15.705c-0.001-0.748,0.02-1.486,0.208-2.224
		c0.683-2.661,2.917-4.233,5.735-3.995c2.453,0.207,4.469,2.245,4.693,4.794c0.065,0.742,0.025,1.495,0.025,2.242
		c-0.001,8.103-0.003,16.205-0.004,24.307c0,0.312,0.003,0.623,0.006,0.935c0.008,0.703,0.395,0.999,1.066,0.996
		c0.623-0.003,1.246,0.005,1.869,0.005c8.227-0.003,16.453-0.012,24.68-0.007c2.644,0.002,4.491,1.188,5.292,3.348
		c1.329,3.587-1.122,7.159-5.084,7.274c-3.114,0.092-6.232,0.031-9.349,0.032c-7.729,0.001-15.456,0.005-23.184-0.005
		c-3.717-0.005-5.935-2.2-5.949-5.918C66.633,78.036,66.648,72.676,66.648,67.316"/>
	<path clip-path="url(#SVGID_2_)" d="M128.851,116.367c-2.947-0.076-5.138-2.402-5.015-5.325c0.118-2.818,2.458-5.051,5.233-4.993
		c2.903,0.06,5.135,2.387,5.091,5.31C134.116,114.285,131.828,116.444,128.851,116.367"/>
	<path clip-path="url(#SVGID_2_)" d="M141.264,93.318c0.02,3.052-2.067,5.135-5.153,5.142c-2.915,0.007-5.127-2.142-5.152-5.008
		c-0.025-2.948,2.203-5.156,5.214-5.163C139.112,88.281,141.245,90.389,141.264,93.318"/>
	<path clip-path="url(#SVGID_2_)" d="M145,72.008c0.02,3.053-2.066,5.135-5.152,5.142c-2.916,0.008-5.128-2.142-5.152-5.007
		c-0.026-2.949,2.202-5.156,5.213-5.163C142.849,66.972,144.981,69.078,145,72.008"/>
	<path clip-path="url(#SVGID_2_)" d="M140.957,49.031c1.039,2.87-0.229,5.53-3.135,6.57c-2.746,0.982-5.549-0.303-6.531-2.994
		c-1.012-2.771,0.35-5.597,3.185-6.61C137.244,45.006,139.959,46.277,140.957,49.031"/>
	<path clip-path="url(#SVGID_2_)" d="M93.262,141.375c-2.935,0-5.062-2.11-5.081-5.042c-0.02-3.005,2.176-5.268,5.11-5.267
		c2.868,0,5.051,2.201,5.059,5.101C98.358,139.265,96.298,141.375,93.262,141.375"/>
	<path clip-path="url(#SVGID_2_)" d="M114.75,130.632c-3.061,0.008-5.153-2.09-5.137-5.148c0.016-2.957,2.084-4.998,5.078-5.011
		c3.03-0.013,5.254,2.177,5.215,5.135C119.869,128.458,117.646,130.625,114.75,130.632"/>
	<path clip-path="url(#SVGID_2_)" d="M66.995,16.959c14.185-1.783,27.316,1.418,39.38,9.113c4.057,2.587,10.621,8.435,13.028,11.766
		l7.723-7.573C114.38,15.943,98.884,7.64,79.952,6.123c-19.547-1.567-36.852,4.129-51.543,17.061
		C4.37,44.343-0.759,77.429,11.203,103.668c13.395,29.382,41.998,41.097,62.604,40.437v-10.323
		c-32.963-0.775-57.141-26.564-58.09-56.779C14.751,46.218,37.15,20.712,66.995,16.959"/>
</g>
</svg>
