<?xml version="1.0" encoding="utf-8"?>
<!-- Generator: Adobe Illustrator 16.0.0, SVG Export Plug-In . SVG Version: 6.00 Build 0)  -->
<!DOCTYPE svg PUBLIC "-//W3C//DTD SVG 1.1//EN" "http://www.w3.org/Graphics/SVG/1.1/DTD/svg11.dtd">
<svg version="1.1" fill="white" id="Layer_1" xmlns="http://www.w3.org/2000/svg" xmlns:xlink="http://www.w3.org/1999/xlink" x="0px" y="0px"
	 width="150px" height="150px" viewBox="0 0 150 150" enable-background="new 0 0 150 150" xml:space="preserve">
<g>
	<path d="M59.508,108.881c0.845-0.72,1.718-0.812,2.658-0.811c19.688,0.014,39.375,0.007,59.063,0.006
		c6.745,0,13.49,0.029,20.234-0.008c1.58-0.009,2.639,0.703,3.242,2.043c0.986,2.189-0.621,4.537-3.072,4.542
		c-7.292,0.015-14.584,0.007-21.875,0.007c-17.773,0-35.548-0.001-53.321-0.003c-1.275,0-2.552,0.002-3.828-0.005
		c-0.993-0.005-2.009,0.127-2.977-0.648c-0.279,1.208-0.472,2.263-0.855,3.263c-2.083,5.422-5.922,8.891-11.598,10.142
		c-6.432,1.417-13.342-1.747-16.567-7.415c-0.776-1.364-1.333-2.788-1.756-4.277c-0.294-1.033-0.268-1.051-1.303-1.053
		c-5.24-0.006-10.481-0.006-15.723-0.008c-1.048,0-2.104-0.087-3.143,0.015c-2.17,0.212-3.68-1.608-3.687-3.341
		c-0.005-1.594,1.661-3.333,3.641-3.29c5.694,0.125,11.393,0.044,17.089,0.044c0.273,0,0.547,0.004,0.82-0.001
		c0.728-0.016,1.533,0.152,2.162-0.107c0.688-0.283,0.62-1.242,0.91-1.89c1.985-4.44,5.195-7.514,9.865-9.006
		c6.274-2.004,12.701,0.265,16.647,4.943c1.438,1.706,2.528,3.672,3.027,5.902C59.222,108.188,59.345,108.435,59.508,108.881
		 M44.132,103.122c-4.976-0.375-8.961,4.148-9.091,8.568c-0.146,4.948,3.521,9.397,9.032,9.411c5.225,0.013,8.908-4.054,9.044-8.877
		C53.259,107.165,48.91,102.824,44.132,103.122"/>
	<path d="M59.687,35.318c0.993-0.622,2.135-0.541,3.268-0.54c16.906,0.003,33.813,0.004,50.719,0.005
		c9.251,0,18.502-0.002,27.752,0.005c1.7,0.001,2.799,0.714,3.325,2.096c0.833,2.191-0.675,4.411-3.101,4.456
		c-2.87,0.053-5.741,0.021-8.612,0.021c-17.909,0-35.818,0-53.727,0c-5.65,0-11.302-0.005-16.952,0.008
		c-0.976,0.002-1.908-0.093-2.813-0.766c-0.153,0.503-0.298,0.914-0.404,1.335c-1.539,6.115-6.76,10.662-13.011,11.466
		c-5.147,0.663-9.509-0.934-13.173-4.493c-1.682-1.633-2.859-3.633-3.652-5.858c-0.687-1.923-0.137-1.694-2.455-1.697
		c-6.106-0.008-12.213-0.018-18.319,0.015c-1.095,0.006-1.938-0.355-2.65-1.148c-0.914-1.019-1.125-2.164-0.595-3.414
		c0.499-1.179,1.39-1.895,2.691-2.014c0.452-0.041,0.911-0.019,1.366-0.019c6.016,0.001,12.03,0.004,18.046,0.007
		c0.046,0,0.091,0,0.137,0c1.177-0.014,1.193-0.009,1.484-1.108c0.448-1.69,1.15-3.264,2.172-4.679
		c2.596-3.596,6.033-5.85,10.463-6.536c5.184-0.803,9.626,0.74,13.381,4.286c2.094,1.978,3.438,4.451,4.135,7.261
		c0.088,0.354,0.188,0.704,0.296,1.051C59.48,35.135,59.569,35.19,59.687,35.318 M43.884,46.861c4.73,0.268,9.243-3.667,9.22-8.93
		c-0.022-5.054-3.798-9.053-8.986-9.081c-5.359-0.028-8.969,4.217-9.065,8.857C34.946,42.759,39.104,47.004,43.884,46.861"/>
	<path d="M49.426,74.729c13.624,0,27.248,0,40.872,0c0.137,0,0.273,0.004,0.41,0c0.953-0.03,1.123-0.12,1.214-1.076
		c0.105-1.109,0.435-2.151,0.869-3.144c2.363-5.408,6.414-8.875,12.286-9.656c6.309-0.839,11.429,1.54,15.113,6.769
		c1.211,1.72,2,3.667,2.385,5.758c0.247,1.344,0.255,1.349,1.664,1.35c5.696,0.003,11.392,0.015,17.088-0.007
		c1.647-0.006,2.787,0.684,3.425,2.197c0.795,1.887-0.554,4.168-2.586,4.367c-0.36,0.035-0.728,0.015-1.093,0.016
		c-5.786,0-11.573,0.037-17.359-0.03c-1.173-0.014-1.787,0.312-2.256,1.408c-1.487,3.479-3.953,6.139-7.378,7.735
		c-5.794,2.701-11.352,2.083-16.448-1.754c-2.129-1.604-3.79-3.704-4.755-6.228c-0.338-0.884-0.757-1.155-1.68-1.152
		c-9.934,0.035-19.866,0.025-29.8,0.025c-17.588,0-35.177-0.011-52.766,0.007c-1.522,0.001-2.668-0.51-3.312-1.914
		c-0.995-2.172,0.521-4.572,2.96-4.658c1.548-0.056,3.098-0.02,4.647-0.02c12.166-0.001,24.332,0,36.498,0V74.729z M98.244,76.313
		c-0.312,3.979,3.288,9.146,9.216,9.084c4.752-0.05,8.831-4.159,8.845-8.934c0.015-5.537-4.655-9.297-9.313-9.156
		C101.857,67.461,98.003,72.089,98.244,76.313"/>
</g>
</svg>
