<?xml version="1.0" encoding="utf-8"?>
<!-- Generator: Adobe Illustrator 16.0.0, SVG Export Plug-In . SVG Version: 6.00 Build 0)  -->
<!DOCTYPE svg PUBLIC "-//W3C//DTD SVG 1.1//EN" "http://www.w3.org/Graphics/SVG/1.1/DTD/svg11.dtd">
<svg version="1.1" id="Layer_1" xmlns="http://www.w3.org/2000/svg" xmlns:xlink="http://www.w3.org/1999/xlink" x="0px" y="0px"
	 width="150px" height="150px" viewBox="0 0 150 150" enable-background="new 0 0 150 150" xml:space="preserve">
<path d="M17.768,17.744c4.639,0.029,7.9,1.565,10.679,4.355C39.444,33.143,50.479,44.15,61.499,55.171
	c3.637,3.637,7.293,7.255,10.893,10.928c0.713,0.727,1.114,0.745,1.828,0.003c2.377-2.47,4.812-4.886,7.267-7.28
	c0.616-0.601,0.726-0.998,0.022-1.595c-0.75-0.637-1.415-1.376-2.107-2.079c-3.982-4.037-4.003-9.419-0.042-13.438
	c1.714-1.739,3.451-3.456,5.178-5.182c8.78-8.779,17.563-17.556,26.338-26.342c0.855-0.857,1.753-1.633,2.962-1.923
	c1.868-0.448,3.738,0.182,4.717,1.619c1.146,1.685,1.07,3.437,0.063,5.134c-0.391,0.658-0.963,1.221-1.511,1.769
	c-8.005,8.012-16.005,16.027-24.051,23.997c-0.911,0.902-1.173,1.429-0.061,2.385c1.532,1.317,2.953,2.781,4.3,4.29
	c0.82,0.919,1.268,0.744,2.053-0.048c8.049-8.115,16.14-16.189,24.218-24.274c0.625-0.625,1.234-1.263,2.043-1.665
	c1.809-0.899,4.045-0.601,5.351,0.726c1.311,1.332,1.583,3.365,0.72,5.211c-0.406,0.869-1.07,1.522-1.732,2.183
	c-8.05,8.04-16.082,16.099-24.172,24.099c-0.928,0.917-0.962,1.4,0.012,2.259c1.477,1.304,2.873,2.714,4.188,4.183
	c0.837,0.935,1.313,0.993,2.256,0.038c8.07-8.167,16.207-16.268,24.316-24.396c0.779-0.781,1.586-1.503,2.68-1.802
	c1.665-0.454,3.229-0.262,4.483,0.988c1.292,1.287,1.563,2.866,1.04,4.605c-0.327,1.089-1.043,1.891-1.821,2.668
	c-10.438,10.429-20.867,20.866-31.306,31.294c-4.281,4.277-9.579,4.24-13.896-0.029c-0.87-0.86-1.607-2.429-2.716-2.317
	c-0.933,0.093-1.742,1.494-2.589,2.333c-1.771,1.756-3.482,3.576-5.314,5.264c-0.889,0.818-0.775,1.267,0.029,2.068
	c13.03,12.979,26.027,25.991,39.032,38.995c2.094,2.094,4.193,4.183,6.28,6.283c3.787,3.811,3.91,9.497,0.293,13.106
	c-3.645,3.635-9.29,3.518-13.105-0.296c-15.029-15.021-30.06-30.041-45.054-45.096c-0.962-0.966-1.461-1.088-2.501-0.043
	c-14.987,15.063-30.017,30.083-45.055,45.096c-4.307,4.299-10.943,3.79-14.193-1.029c-2.46-3.649-2.012-8.337,1.163-11.559
	c3.246-3.293,6.533-6.545,9.803-9.814c11.865-11.866,23.719-23.745,35.62-35.575c0.921-0.916,0.941-1.366-0.004-2.251
	c-2.313-2.165-4.515-4.447-6.735-6.708c-0.554-0.564-0.996-0.792-1.872-0.511c-5.132,1.645-9.846,0.712-13.699-3.045
	c-9.485-9.248-18.917-18.553-28.216-27.987c-4.114-4.174-4.943-9.319-2.603-14.688C8.56,20.516,12.826,17.999,17.768,17.744"/>
</svg>
