<?xml version="1.0" encoding="utf-8"?>
<!-- Generator: Adobe Illustrator 16.0.0, SVG Export Plug-In . SVG Version: 6.00 Build 0)  -->
<!DOCTYPE svg PUBLIC "-//W3C//DTD SVG 1.1//EN" "http://www.w3.org/Graphics/SVG/1.1/DTD/svg11.dtd">
<svg version="1.1" fill="#d70f64" id="Layer_1" xmlns="http://www.w3.org/2000/svg" xmlns:xlink="http://www.w3.org/1999/xlink" x="0px" y="0px"
	 width="150px" height="150px" viewBox="0 0 150 150" enable-background="new 0 0 150 150" xml:space="preserve">
<g>
	<defs>
		<rect id="SVGID_3_" x="5" y="5.002" width="140" height="139.996"/>
	</defs>
	<clipPath id="SVGID_2_">
		<use xlink:href="#SVGID_3_"  overflow="visible"/>
	</clipPath>
	<path clip-path="url(#SVGID_2_)" fill-rule="evenodd" clip-rule="evenodd" d="M145,74.889
		c0.041,37.994-32.027,70.113-69.992,70.109c-38.131-0.006-70.474-32.311-70.003-70.62C5.47,36.34,36.958,5.227,74.763,5.003
		C112.894,4.776,144.955,36.99,145,74.889 M123.331,75.21c0.098-27.427-20.79-48.486-48.225-48.618
		C48.081,26.46,26.754,47.567,26.593,74.607c-0.16,27.419,20.734,48.578,48.118,48.724
		C102.211,123.476,123.233,102.67,123.331,75.21"/>
	<path clip-path="url(#SVGID_2_)" fill-rule="evenodd" clip-rule="evenodd" d="M79.5,74.975c3.991,0,7.413-0.011,10.838,0.004
		c0.959,0.004,1.942-0.047,2.873,0.136c2.462,0.482,3.907,2.299,3.824,4.626c-0.086,2.357-1.623,3.958-4.173,4.273
		c-0.679,0.083-1.373,0.039-2.061,0.039c-4.671,0.001-9.343,0.015-14.016-0.004c-4.869-0.02-6.27-1.429-6.342-6.433
		c-0.046-3.021-0.008-6.045-0.008-9.068c0-7.283-0.015-14.565,0.016-21.849c0.003-1.223,0.012-2.501,0.344-3.66
		c0.637-2.225,2.464-3.328,4.716-3.107c2.028,0.198,3.543,1.526,3.884,3.647c0.192,1.208,0.117,2.466,0.118,3.7
		c0.002,7.695-0.009,15.39-0.013,23.085C79.498,71.72,79.5,73.072,79.5,74.975"/>
</g>
</svg>
