<?xml version="1.0" encoding="utf-8"?>
<!-- Generator: Adobe Illustrator 16.0.0, SVG Export Plug-In . SVG Version: 6.00 Build 0)  -->
<!DOCTYPE svg PUBLIC "-//W3C//DTD SVG 1.1//EN" "http://www.w3.org/Graphics/SVG/1.1/DTD/svg11.dtd">
<svg version="1.1" id="Layer_1" xmlns="http://www.w3.org/2000/svg" xmlns:xlink="http://www.w3.org/1999/xlink" x="0px" y="0px"
	 width="150px" height="150px" viewBox="0 0 150 150" enable-background="new 0 0 150 150" xml:space="preserve">
<g>
	<defs>
		<rect id="SVGID_11_" x="5" y="20.716" width="140" height="108.568"/>
	</defs>
	<clipPath id="SVGID_2_">
		<use xlink:href="#SVGID_11_"  overflow="visible"/>
	</clipPath>
	<path clip-path="url(#SVGID_2_)" fill-rule="evenodd" clip-rule="evenodd" d="M5,71.428c8.212,6.338,15.871,11.824,23.024,17.893
		c10.888,9.237,17.4,21.616,23.662,34.089c1.486,2.986,3.169,5.904,7.061,5.875c3.952-0.058,5.152-3.286,6.833-6.126
		c10.049-17.005,19.322-34.552,30.588-50.727c12.639-18.173,28.004-34.279,44.9-48.813c0.985-0.868,2.61-1.005,3.932-1.486
		c-0.578-0.466-1.16-0.937-1.737-1.392c-4.486,0-8.977-0.076-13.449,0.038c-0.986,0.028-2.069,0.638-2.928,1.236
		c-23.084,16.137-42.493,35.981-59.732,58.04c-3.139,4.029-6.155,8.146-9.673,12.822c-7.678-12.869-20.27-18.417-32.654-24.138
		c-1.854-0.857-4.313-1.119-6.33-0.752C14.138,68.762,9.89,70.134,5,71.428"/>
</g>
</svg>
