<?xml version="1.0" encoding="utf-8"?>
<!-- Generator: Adobe Illustrator 16.0.0, SVG Export Plug-In . SVG Version: 6.00 Build 0)  -->
<!DOCTYPE svg PUBLIC "-//W3C//DTD SVG 1.1//EN" "http://www.w3.org/Graphics/SVG/1.1/DTD/svg11.dtd">
<svg version="1.1" id="Layer_1" xmlns="http://www.w3.org/2000/svg" xmlns:xlink="http://www.w3.org/1999/xlink" x="0px" y="0px"
	 width="150px" height="150px" viewBox="0 0 150 150" enable-background="new 0 0 150 150" xml:space="preserve">
<g>
	<defs>
		<rect id="SVGID_5_" x="5" y="7.785" width="140" height="134.43"/>
	</defs>
	<clipPath id="SVGID_2_">
		<use xlink:href="#SVGID_5_"  overflow="visible"/>
	</clipPath>
	<path clip-path="url(#SVGID_2_)" d="M70.088,61.511c0-5.186-0.164-10.255,0.031-15.31c0.589-15.31,7.259-27.241,20.967-34.296
		c11.99-6.171,24.221-5.204,35.866,1.518c9.717,5.608,15.149,14.429,17.479,25.137c0.933,4.283,0.495,8.798,0.244,13.196
		c-0.141,2.453-1.961,4.192-4.426,4.439c-2.116,0.212-4.288,0.226-6.403,0.011c-2.956-0.3-4.976-2.599-5.185-5.698
		c-0.125-1.863-0.017-3.74-0.042-5.611c-0.127-9.312-5.791-16.462-13.65-19.344c-13.47-4.938-26.499,4.465-28.098,16.217
		c-0.179,1.312-0.591,2.613-0.609,3.922c-0.071,5.202-0.029,10.406-0.029,15.792c1.739,0.412,3.407,0.705,5.011,1.205
		c4.227,1.318,7.606,3.696,9.62,7.806c0.838,1.711,1.388,3.419,1.385,5.348c-0.027,15.902,0.023,31.805-0.04,47.707
		c-0.025,6.446-5.028,14.379-12.519,17.027c-2.527,0.894-4.964,1.646-7.704,1.636c-18.707-0.072-37.413-0.061-56.12-0.024
		c-4.538,0.009-8.623-1.116-12.347-3.797c-5.344-3.848-8.344-9.044-8.423-15.528c-0.188-15.499-0.033-31.002-0.082-46.503
		c-0.021-6.539,5.408-12.016,10.631-13.557c2.018-0.595,4.121-0.896,6.294-0.886c14.565,0.069,29.132,0.044,43.697,0.024
		C66.949,61.941,68.292,62.183,70.088,61.511 M20.29,77.595c0,15.034-0.029,29.849,0.026,44.663
		c0.011,2.662,1.865,4.439,4.477,4.645c1.063,0.083,2.135,0.033,3.203,0.033c15.619,0.001,31.239,0.001,46.859,0.001
		c2.27,0,4.54,0.042,6.808-0.012c3.134-0.075,4.381-1.166,5.414-4.224c0.397-1.176,0.509-2.324,0.509-3.525
		c-0.005-12.95,0-25.899-0.009-38.849c-0.001-0.916,0.176-1.891-0.602-2.639C84.051,77.08,25.441,76.95,20.29,77.595"/>
	<path clip-path="url(#SVGID_2_)" d="M59.84,102.589c1.115,4.573,2.247,9.188,3.364,13.806c0.186,0.768,0.425,1.548,0.438,2.326
		c0.027,1.68-0.646,2.535-2.355,2.565c-5.063,0.092-10.13,0.113-15.192-0.003c-2.157-0.05-2.834-1.259-2.272-3.629
		c1.187-5.012,2.434-10.01,3.644-14.966c-5.81-6.963-6.163-12.076-1.004-16.785c4.399-4.016,9.997-4.356,14.602,0.187
		C65.908,90.87,65.524,96.138,59.84,102.589"/>
</g>
</svg>
