<?xml version="1.0" encoding="utf-8"?>
<!-- Generator: Adobe Illustrator 16.0.0, SVG Export Plug-In . SVG Version: 6.00 Build 0)  -->
<!DOCTYPE svg PUBLIC "-//W3C//DTD SVG 1.1//EN" "http://www.w3.org/Graphics/SVG/1.1/DTD/svg11.dtd">
<svg version="1.1" id="Layer_1" xmlns="http://www.w3.org/2000/svg" xmlns:xlink="http://www.w3.org/1999/xlink" x="0px" y="0px"
	 width="150px" height="150px" viewBox="0 0 150 150" enable-background="new 0 0 150 150" xml:space="preserve">
<g>
	<defs>
		<rect id="SVGID_19_" x="5" y="47.17" width="140" height="55.66"/>
	</defs>
	<clipPath id="SVGID_2_">
		<use xlink:href="#SVGID_19_"  overflow="visible"/>
	</clipPath>
	<path clip-path="url(#SVGID_2_)" fill-rule="evenodd" clip-rule="evenodd" d="M38.612,87.594c-0.233-0.717-0.608-0.826-1.255-0.818
		c-2.803,0.023-5.605,0.031-8.409,0.008c-4.729-0.041-8.095-3.404-8.133-8.119c-0.021-2.473-0.013-4.947,0.002-7.42
		c0.026-4.879,3.364-8.242,8.243-8.246c15.58-0.012,31.158-0.008,46.74,0.008c5.031,0.006,8.34,3.342,8.364,8.387
		c0.009,2.016,0.002,4.029,0.002,6.094c5.292,0.156,10.502,0.311,15.762,0.465c0.006-2.664,0.055-5.174,0.008-7.682
		C99.703,57.898,89.52,47.43,77.135,47.281c-16.399-0.197-32.806-0.082-49.211-0.039c-3.855,0.01-7.49,1.082-10.819,3.047
		c-1.444,0.852-2.798,1.863-4.191,2.803c-0.698,0.699-1.401,1.4-2.1,2.1c-0.14,0.246-0.25,0.516-0.427,0.732
		c-3.491,4.271-5.26,9.176-5.359,14.678c-0.048,2.596-0.02,5.191-0.01,7.789c0.056,13.816,10.371,24.152,24.168,24.189
		c7.131,0.018,14.263-0.002,21.393-0.008c0.334,0,0.668-0.039,1.268-0.078c-0.396-0.205-0.537-0.279-0.678-0.35
		C44.977,99.025,40.768,94.182,38.612,87.594"/>
	<path clip-path="url(#SVGID_2_)" fill-rule="evenodd" clip-rule="evenodd" d="M144.987,71.455
		c-0.103-13.66-10.455-23.977-24.112-24.012c-7.131-0.018-14.265-0.002-21.397,0.004c-0.33,0-0.663,0.041-1.081,0.07
		c0.152,0.17,0.194,0.254,0.261,0.287c6.337,3.086,10.552,8.018,12.743,14.688c0.219,0.668,0.574,0.768,1.175,0.762
		c2.846-0.021,5.69-0.029,8.535-0.002c4.667,0.047,8.014,3.393,8.066,8.053c0.024,2.391,0.016,4.781,0.016,7.172
		c0.002,5.26-3.283,8.537-8.579,8.539c-15.379,0.006-30.758,0.006-46.135,0.004c-5.393,0-8.648-3.242-8.648-8.604
		c0-1.93,0.032-3.855,0.051-5.871c-5.358-0.158-10.535-0.314-15.845-0.471c0.005,2.285,0.005,4.459,0.011,6.631
		c0.049,13.73,10.375,24.055,24.129,24.111c3.916,0.016,7.835,0.002,11.748,0.002c11.671,0,23.339,0.029,35.007-0.006
		c13.651-0.041,23.983-10.396,24.059-24.059C145.002,76.32,145.006,73.889,144.987,71.455"/>
</g>
</svg>
