<?xml version="1.0" encoding="utf-8"?>
<!-- Generator: Adobe Illustrator 16.0.0, SVG Export Plug-In . SVG Version: 6.00 Build 0)  -->
<!DOCTYPE svg PUBLIC "-//W3C//DTD SVG 1.1//EN" "http://www.w3.org/Graphics/SVG/1.1/DTD/svg11.dtd">
<svg version="1.1" id="Layer_1" xmlns="http://www.w3.org/2000/svg" xmlns:xlink="http://www.w3.org/1999/xlink" x="0px" y="0px"
	 width="150px" height="150px" viewBox="0 0 150 150" enable-background="new 0 0 150 150" xml:space="preserve">
<g>
	<path fill-rule="evenodd" clip-rule="evenodd" d="M75.595,144.982c-17.455,0.06-34.801-1.044-51.791-5.439
		c-3.1-0.802-5.967-2.062-8.313-4.299c-2.937-2.803-4.647-6.222-3.74-10.271c4.289-19.106,12.957-35.697,28.343-48.313
		c1.26-1.032,2.606-1.972,3.979-2.851c4.117-2.637,7.325-3.943,12.871-0.826c13.26,7.456,27.137,6.789,40.009-2.084
		c1.499-1.033,2.465-0.726,3.795-0.112c10.321,4.75,17.996,12.482,24.295,21.693c6.46,9.449,10.807,19.828,13.051,31.069
		c1.515,7.596-1.262,12.344-8.645,14.808c-15.045,5.021-30.626,6.302-46.343,6.617C80.604,145.025,78.099,144.982,75.595,144.982"/>
	<path fill-rule="evenodd" clip-rule="evenodd" d="M74.737,68.393C57.234,68.354,43.251,54.092,43.31,36.337
		C43.367,19.164,57.642,4.975,74.837,5c17.586,0.027,31.929,14.33,31.854,31.766C106.616,54.344,92.384,68.43,74.737,68.393"/>
</g>
</svg>
