<?xml version="1.0" encoding="utf-8"?>
<!-- Generator: Adobe Illustrator 16.0.0, SVG Export Plug-In . SVG Version: 6.00 Build 0)  -->
<!DOCTYPE svg PUBLIC "-//W3C//DTD SVG 1.1//EN" "http://www.w3.org/Graphics/SVG/1.1/DTD/svg11.dtd">
<svg version="1.1" id="Layer_1" xmlns="http://www.w3.org/2000/svg" xmlns:xlink="http://www.w3.org/1999/xlink" x="0px" y="0px"
	 width="150px" height="150px" viewBox="0 0 150 150" enable-background="new 0 0 150 150" xml:space="preserve">
<g>
	<path d="M68.193,43.17c-3.254-5.993-2.901-10.247,1.079-13.469c3.479-2.816,8.332-2.753,11.706,0.153
		c3.864,3.329,4.166,7.622,0.866,13.323c3.715,0.383,7.388,0.784,10.951,1.771c25.628,7.097,41.692,23.581,48.241,49.323
		c1.024,4.023,1.411,8.159,1.543,12.318c0.04,1.272-0.205,1.722-1.605,1.72c-26.098-0.044-52.196-0.03-78.294-0.03
		c-17.8,0-35.601-0.014-53.402,0.022c-1.266,0.002-1.705-0.246-1.688-1.636c0.33-26.516,18.305-51.336,43.413-59.894
		c5.41-1.844,10.944-3.052,16.642-3.51C67.821,43.247,67.995,43.204,68.193,43.17"/>
	<path d="M74.92,122.323c-21.893,0-43.786-0.053-65.679,0.046c-4.145,0.019-4.763-3.265-3.909-5.916
		c0.53-1.645,1.92-2.117,3.57-2.111c6.51,0.023,13.02,0.004,19.53,0.004c37.373,0.001,74.745,0.003,112.118,0.006
		c3.409,0,4.468,1.039,4.45,4.347c-0.013,2.402-1.227,3.614-3.678,3.617c-7.522,0.01-15.046,0.006-22.567,0.006
		C104.143,122.324,89.532,122.323,74.92,122.323"/>
</g>
</svg>
