<?xml version="1.0" encoding="utf-8"?>
<!-- Generator: Adobe Illustrator 16.0.0, SVG Export Plug-In . SVG Version: 6.00 Build 0)  -->
<!DOCTYPE svg PUBLIC "-//W3C//DTD SVG 1.1//EN" "http://www.w3.org/Graphics/SVG/1.1/DTD/svg11.dtd">
<svg version="1.1" id="Layer_1" xmlns="http://www.w3.org/2000/svg" xmlns:xlink="http://www.w3.org/1999/xlink" x="0px" y="0px"
	 width="150px" height="150px" viewBox="0 0 150 150" enable-background="new 0 0 150 150" xml:space="preserve">
<g>
	<defs>
		<rect id="SVGID_7_" x="5" y="9.451" width="140" height="131.099"/>
	</defs>
	<clipPath id="SVGID_2_">
		<use xlink:href="#SVGID_7_"  overflow="visible"/>
	</clipPath>
	<path clip-path="url(#SVGID_2_)" fill-rule="evenodd" clip-rule="evenodd" d="M131.409,75.341v3.647c0,18.25,0.003,36.5,0,54.75
		c-0.001,5.319-1.471,6.794-6.795,6.799c-10.001,0.011-20.003,0.004-30.004,0.004h-3.081V88.279H58.564v52.062
		c-1.215,0.082-2.114,0.196-3.012,0.197c-10.208,0.009-20.414,0.021-30.623-0.007c-4.771-0.014-6.27-1.534-6.272-6.32
		c-0.016-18.042-0.007-36.086-0.008-54.13v-4.644c-0.838,0.41-1.358,0.644-1.861,0.916c-3.869,2.097-7.826,1.396-10.226-1.821
		c-2.45-3.286-2.026-7.657,1.33-10.536c9.938-8.524,19.962-16.946,29.955-25.405c10.309-8.725,20.62-17.445,30.927-26.171
		c4.606-3.9,7.701-3.983,12.295-0.102c20.239,17.098,40.457,34.22,60.668,51.351c3.585,3.038,4.258,7.266,1.812,10.72
		c-2.427,3.427-6.57,4.105-10.721,1.755C132.494,75.954,132.16,75.765,131.409,75.341"/>
</g>
</svg>
