<?xml version="1.0" encoding="utf-8"?>
<!-- Generator: Adobe Illustrator 16.0.0, SVG Export Plug-In . SVG Version: 6.00 Build 0)  -->
<!DOCTYPE svg PUBLIC "-//W3C//DTD SVG 1.1//EN" "http://www.w3.org/Graphics/SVG/1.1/DTD/svg11.dtd">
<svg version="1.1" id="Layer_1" xmlns="http://www.w3.org/2000/svg" xmlns:xlink="http://www.w3.org/1999/xlink" x="0px" y="0px"
	 width="150px" height="150px" viewBox="0 0 150 150" enable-background="new 0 0 150 150" xml:space="preserve">
<g>
	<defs>
		<rect id="SVGID_1_" x="5" y="4.964" width="140" height="140.071"/>
	</defs>
	<clipPath id="SVGID_2_">
		<use xlink:href="#SVGID_1_"  overflow="visible"/>
	</clipPath>
	<path clip-path="url(#SVGID_2_)" fill-rule="evenodd" clip-rule="evenodd" d="M142.777,102.05
		c-8.36-7.003-17.98-11.073-28.877-11.748c-4.498-0.28-5.893,1.125-6.912,5.553c-1.034,4.5-1.756,9.081-3.382,13.423
		c-1.308,3.492-3.342,4.438-6.954,3.451c-2.697-0.736-4.731-2.512-6.696-4.343c-8.377-7.782-16.153-16.161-23.924-24.278
		c-8.324-7.98-16.643-15.695-24.372-24.011c-1.77-1.907-3.503-3.864-4.307-6.435c-1.184-3.793-0.196-5.926,3.526-7.324
		c4.263-1.602,8.768-2.3,13.179-3.333c4.647-1.088,5.73-2.291,5.602-7.119c-0.222-8.295-3.404-15.681-7.369-22.778
		c-1.393-2.497-3.032-4.838-5.233-6.731c-1.357-1.167-2.807-1.667-4.637-1.285c-2.875,0.601-5.792,1.017-8.686,1.54
		c-3.226,0.58-6.602,0.936-9.432,2.601C16.458,13.845,10.523,20.24,7.633,29.023c-5.814,17.668-1.702,33.682,9.408,47.824
		c11.788,15.006,24.909,28.878,39.213,41.567c7.095,6.298,13.762,13.158,21.908,18.133c12.659,7.731,26.31,10.946,40.774,6.402
		c13.577-4.264,22.738-12.993,24.63-27.875c0.286-2.25,0.568-4.522,1.162-6.701C145.443,105.756,144.733,103.689,142.777,102.05"/>
</g>
</svg>
